<?xml version="1.0" encoding="utf-8"?>
<!-- Generator: Adobe Illustrator 19.2.1, SVG Export Plug-In . SVG Version: 6.00 Build 0)  -->
<svg version="1.1" id="Warstwa_1" xmlns="http://www.w3.org/2000/svg" xmlns:xlink="http://www.w3.org/1999/xlink" x="0px" y="0px"
	 viewBox="0 0 41 30" style="enable-background:new 0 0 41 30;" xml:space="preserve">
<style type="text/css">
	.st0{clip-path:url(#SVGID_2_);fill:none;stroke:#FFFFFF;stroke-width:1.388;stroke-linecap:round;}
	.st1{fill:none;stroke:#FFFFFF;stroke-width:1.388;stroke-linecap:round;}
</style>
<g>
	<defs>
		<rect id="SVGID_1_" width="41" height="30"/>
	</defs>
	<clipPath id="SVGID_2_">
		<use xlink:href="#SVGID_1_"  style="overflow:visible;"/>
	</clipPath>
	<path class="st0" d="M5.7,0.7c0,0-5,0-5,5v18.7c0,0,0,5,5,5h29.7c0,0,5,0,5-5V5.7c0,0,0-5-5-5H5.7z"/>
	<path class="st0" d="M5.7,0.7c0,0-5,0-5,5v18.7c0,0,0,5,5,5h25.6c0,0,5,0,5-5V5.7c0,0,0-5-5-5H5.7z"/>
	<path class="st0" d="M5.7,0.7c0,0-5,0-5,5v18.7c0,0,0,5,5,5h21.4c0,0,5,0,5-5V5.7c0,0,0-5-5-5H5.7z"/>
	<path class="st0" d="M5.7,0.7c0,0-5,0-5,5v18.7c0,0,0,5,5,5H23c0,0,5,0,5-5V5.7c0,0,0-5-5-5H5.7z"/>
</g>
<rect x="4.4" y="4.3" class="st1" width="7.9" height="9"/>
<rect x="15.7" y="4.3" class="st1" width="7.9" height="9"/>
<rect x="4.4" y="16.7" class="st1" width="7.9" height="9"/>
<rect x="15.7" y="16.7" class="st1" width="7.9" height="9"/>
</svg>
