<svg width="19" height="19" viewBox="0 0 19 19" fill="none" xmlns="http://www.w3.org/2000/svg">
<path d="M15.8301 0.748291C16.4746 0.748291 17.0215 0.97876 17.4707 1.43579C17.9277 1.89673 18.1582 2.4436 18.1582 3.07642V15.8889C18.1582 16.5256 17.9277 17.0686 17.4707 17.5139C17.0215 17.9709 16.4746 18.2014 15.8301 18.2014H3.06445C2.39648 18.2014 1.83789 17.9709 1.39258 17.5139C0.955078 17.0686 0.736328 16.5256 0.736328 15.8889V3.07642C0.736328 2.4436 0.955078 1.89673 1.39258 1.43579C1.83789 0.97876 2.39648 0.748291 3.06445 0.748291H15.8301ZM3.06445 1.93579C2.72852 1.93579 2.44727 2.04517 2.2207 2.26392C1.99023 2.48267 1.87695 2.7561 1.87695 3.07642V12.9358L5.51758 8.01392C5.61133 7.82642 5.75977 7.7561 5.9707 7.79517C6.17773 7.79517 6.3457 7.8811 6.4707 8.04517L8.58008 11.2014L12.4863 6.31079C12.6309 6.16626 12.7871 6.09204 12.9551 6.09204C13.1191 6.09204 13.2715 6.16626 13.4082 6.31079L17.0176 10.7327V3.07642C17.0176 2.7561 16.9004 2.48267 16.6738 2.26392C16.4434 2.04517 16.1621 1.93579 15.8301 1.93579H3.06445ZM15.8301 17.0295C16.1621 17.0295 16.4434 16.9163 16.6738 16.6858C16.9004 16.4592 17.0176 16.1936 17.0176 15.8889V12.592L12.9551 7.60767L8.98633 12.5608C8.83789 12.7092 8.68164 12.7795 8.51758 12.7795C8.30664 12.7795 8.15039 12.6858 8.04883 12.4983L5.93945 9.37329L1.87695 14.8889V15.8889C1.87695 16.1936 1.99023 16.4592 2.2207 16.6858C2.44727 16.9163 2.72852 17.0295 3.06445 17.0295H15.8301ZM5.8457 3.63892C6.17773 3.63892 6.45898 3.7561 6.68945 3.98267C6.91602 4.21314 7.0332 4.47876 7.0332 4.77954C7.0332 5.11548 6.91602 5.39673 6.68945 5.62329C6.45898 5.85376 6.17773 5.96704 5.8457 5.96704C5.54102 5.96704 5.27539 5.85376 5.04883 5.62329C4.81836 5.39673 4.70508 5.11548 4.70508 4.77954C4.70508 4.47876 4.81836 4.21314 5.04883 3.98267C5.27539 3.7561 5.54102 3.63892 5.8457 3.63892Z" fill="white"/>
</svg>
