
<svg width="19" height="18" viewBox="0 0 19 18" fill="none" xmlns="http://www.w3.org/2000/svg">
<path d="M15.8721 0.185547C16.5166 0.185547 17.0635 0.416016 17.5127 0.873047C17.9697 1.33398 18.2002 1.88086 18.2002 2.51367V15.3262C18.2002 15.9629 17.9697 16.5059 17.5127 16.9512C17.0635 17.4082 16.5166 17.6387 15.8721 17.6387H3.10645C2.43848 17.6387 1.87988 17.4082 1.43457 16.9512C0.99707 16.5059 0.77832 15.9629 0.77832 15.3262V2.51367C0.77832 1.88086 0.99707 1.33398 1.43457 0.873047C1.87988 0.416016 2.43848 0.185547 3.10645 0.185547H15.8721ZM3.10645 1.37305C2.77051 1.37305 2.48926 1.48242 2.2627 1.70117C2.03223 1.91992 1.91895 2.19336 1.91895 2.51367V12.373L5.55957 7.45117C5.65332 7.26367 5.80176 7.19336 6.0127 7.23242C6.21973 7.23242 6.3877 7.31836 6.5127 7.48242L8.62207 10.6387L12.5283 5.74805C12.6729 5.60352 12.8291 5.5293 12.9971 5.5293C13.1611 5.5293 13.3135 5.60352 13.4502 5.74805L17.0596 10.1699V2.51367C17.0596 2.19336 16.9424 1.91992 16.7158 1.70117C16.4854 1.48242 16.2041 1.37305 15.8721 1.37305H3.10645ZM15.8721 16.4668C16.2041 16.4668 16.4854 16.3535 16.7158 16.123C16.9424 15.8965 17.0596 15.6309 17.0596 15.3262V12.0293L12.9971 7.04492L9.02832 11.998C8.87988 12.1465 8.72363 12.2168 8.55957 12.2168C8.34863 12.2168 8.19238 12.123 8.09082 11.9355L5.98145 8.81055L1.91895 14.3262V15.3262C1.91895 15.6309 2.03223 15.8965 2.2627 16.123C2.48926 16.3535 2.77051 16.4668 3.10645 16.4668H15.8721ZM5.8877 3.07617C6.21973 3.07617 6.50098 3.19336 6.73145 3.41992C6.95801 3.65039 7.0752 3.91602 7.0752 4.2168C7.0752 4.55274 6.95801 4.83399 6.73145 5.06055C6.50098 5.29102 6.21973 5.4043 5.8877 5.4043C5.58301 5.4043 5.31738 5.29102 5.09082 5.06055C4.86035 4.83399 4.74707 4.55274 4.74707 4.2168C4.74707 3.91602 4.86035 3.65039 5.09082 3.41992C5.31738 3.19336 5.58301 3.07617 5.8877 3.07617Z" fill="#565656"/>
</svg>
