<svg width="28" height="20" viewBox="0 0 28 20" fill="none" xmlns="http://www.w3.org/2000/svg">
<path d="M1.16793 19.85C0.812464 19.7563 0.605433 19.5141 0.542933 19.1157C0.542933 19.0961 0.531214 18.6743 0.511683 17.85C0.499965 17.018 0.59762 15.9985 0.808558 14.7875C1.01559 13.5688 1.37887 12.2641 1.90231 10.8657C2.43356 9.47113 3.22262 8.18988 4.27731 7.02191C6.46481 4.61566 9.49606 3.41254 13.3711 3.41254H18.2304V1.61566C18.2304 1.23285 18.3476 0.975038 18.5898 0.850038C18.8906 0.736757 19.1601 0.768007 19.4023 0.943788L27.1367 6.47504C27.375 6.65473 27.4961 6.87738 27.4961 7.14691C27.4961 7.42035 27.4062 7.64691 27.2304 7.83441L19.4804 14.225C19.207 14.436 18.9257 14.475 18.6367 14.35C18.3632 14.2368 18.2304 13.9829 18.2304 13.5844V11.8813H13.3711C11.7773 11.8813 10.3632 12.1704 9.13668 12.7407C7.90622 13.3032 6.82418 13.975 5.88668 14.7563C4.957 15.5375 4.18746 16.3579 3.57418 17.2094C2.957 18.0649 2.49996 18.7797 2.19918 19.35C2.17575 19.4125 2.16793 19.4438 2.16793 19.4438H2.12106C1.93356 19.7172 1.69137 19.85 1.40231 19.85H1.16793ZM19.9336 10.9282V11.7875L25.4336 7.19379L19.9336 3.24066V4.17816C19.9336 4.42035 19.8164 4.63129 19.5898 4.81879C19.3711 4.99848 19.1406 5.08441 18.9023 5.08441H13.3711C10.0351 5.08441 7.43747 6.10785 5.57418 8.14691C5.04293 8.74066 4.57809 9.37738 4.18356 10.0532C3.79684 10.7329 3.48434 11.4125 3.24606 12.1C3.00387 12.7875 2.80856 13.4829 2.65231 14.1782C2.50387 14.8657 2.40231 15.4985 2.33981 16.0688C2.84762 15.4047 3.46481 14.7211 4.18356 14.0219C4.90231 13.3149 5.71872 12.6743 6.63668 12.1C7.55075 11.5297 8.56247 11.0649 9.66793 10.7094C10.7812 10.3461 12.0156 10.1625 13.3711 10.1625H18.9023C19.1406 10.1625 19.3711 10.2329 19.5898 10.3657C19.8164 10.5024 19.9336 10.6899 19.9336 10.9282Z" fill="#565656"/>
</svg>
